<svg aria-hidden="true" style="position: absolute; width: 0; height: 0; overflow: hidden;" version="1.1" xmlns="http://www.w3.org/2000/svg" xmlns:xlink="http://www.w3.org/1999/xlink">
<defs>
<symbol id="icon-atom" viewBox="0 0 32 32">
<path d="M24.687 16.037c2.293 2.473 3.32 4.906 2.429 6.466-0.889 1.556-3.481 1.877-6.738 1.114-0.975 3.259-2.554 5.387-4.341 5.387-1.789 0-3.367-2.135-4.34-5.403-3.293 0.785-5.916 0.47-6.812-1.098-0.891-1.56 0.137-3.996 2.43-6.472-2.337-2.496-3.389-4.96-2.49-6.532 0.9-1.576 3.548-1.887 6.864-1.087 0.974-3.275 2.558-5.416 4.349-5.416 1.79 0 3.369 2.134 4.342 5.401 3.285-0.78 5.904-0.464 6.799 1.102 0.896 1.573-0.157 4.039-2.492 6.538zM5.752 10.041c-0.688 1.204 0.261 3.178 2.27 5.265 0.819-0.799 1.762-1.592 2.812-2.354 0.128-1.266 0.323-2.467 0.59-3.56-2.807-0.721-4.981-0.56-5.672 0.649zM10.721 14.361c-0.72 0.548-1.377 1.104-1.966 1.659 0.597 0.558 1.241 1.118 1.97 1.67-0.030-0.555-0.051-1.116-0.051-1.69 0-0.556 0.018-1.102 0.047-1.639zM10.833 19.094c-1.051-0.759-1.991-1.55-2.813-2.346-1.973 2.068-2.889 4.019-2.207 5.213 0.687 1.201 2.838 1.368 5.62 0.662-0.267-1.087-0.473-2.269-0.6-3.529zM20.089 19.835c-0.446 0.293-0.902 0.581-1.377 0.858-0.482 0.281-0.964 0.539-1.444 0.785 0.823 0.35 1.628 0.655 2.392 0.889 0.179-0.784 0.318-1.639 0.429-2.532zM16.036 27.92c1.369 0 2.584-1.785 3.37-4.557-1.085-0.312-2.231-0.746-3.399-1.274-1.147 0.521-2.269 0.94-3.337 1.253 0.784 2.779 1.997 4.578 3.366 4.578zM12.423 22.342c0.742-0.231 1.518-0.518 2.316-0.858-0.482-0.247-0.967-0.508-1.451-0.79-0.449-0.263-0.881-0.533-1.304-0.81 0.109 0.877 0.264 1.686 0.439 2.458zM11.986 12.156c0.441-0.289 0.893-0.573 1.362-0.848 0.463-0.271 0.926-0.52 1.388-0.758-0.801-0.342-1.585-0.644-2.331-0.877-0.174 0.77-0.309 1.609-0.419 2.483zM16.036 4.080c-1.373 0-2.594 1.802-3.379 4.594 1.067 0.314 2.191 0.745 3.336 1.267 1.172-0.537 2.318-0.966 3.409-1.284-0.784-2.777-1.996-4.577-3.366-4.577zM19.651 9.655c-0.768 0.239-1.57 0.535-2.398 0.891 0.465 0.239 0.932 0.49 1.398 0.763 0.502 0.293 0.982 0.598 1.451 0.908-0.11-0.915-0.269-1.76-0.451-2.562zM20.24 13.604c-0.67-0.466-1.378-0.921-2.126-1.356-0.716-0.418-1.426-0.783-2.128-1.124-0.693 0.338-1.396 0.713-2.101 1.124-0.713 0.415-1.394 0.849-2.035 1.291-0.062 0.797-0.104 1.613-0.104 2.462 0 0.858 0.035 1.693 0.097 2.499 0.627 0.431 1.289 0.852 1.981 1.256 0.736 0.429 1.466 0.804 2.188 1.152 0.713-0.346 1.437-0.729 2.162-1.152 0.719-0.419 1.402-0.855 2.049-1.302 0.061-0.794 0.104-1.607 0.104-2.453 0-0.822-0.030-1.623-0.087-2.397zM26.187 21.961c0.682-1.192-0.242-3.14-2.211-5.203-0.801 0.774-1.718 1.542-2.736 2.281-0.128 1.282-0.326 2.499-0.598 3.604 2.746 0.685 4.865 0.508 5.545-0.682zM21.353 17.63c0.689-0.526 1.321-1.060 1.891-1.591-0.572-0.54-1.189-1.083-1.887-1.618 0.025 0.519 0.043 1.044 0.043 1.579-0.001 0.554-0.019 1.096-0.047 1.63zM26.247 10.041c-0.686-1.199-2.83-1.369-5.605-0.666 0.273 1.118 0.484 2.339 0.61 3.641 1.019 0.745 1.93 1.52 2.728 2.299 2.013-2.091 2.957-4.068 2.267-5.274zM16.2 18.062c-1.177 0-2.131-0.963-2.131-2.152s0.954-2.152 2.131-2.152c1.176 0 2.13 0.964 2.13 2.152 0 1.19-0.954 2.152-2.13 2.152z"></path>
</symbol>
<symbol id="icon-check_circle" viewBox="0 0 24 24">
<path d="M9.984 17.016l9-9-1.406-1.453-7.594 7.594-3.563-3.563-1.406 1.406zM12 2.016q4.125 0 7.055 2.93t2.93 7.055-2.93 7.055-7.055 2.93-7.055-2.93-2.93-7.055 2.93-7.055 7.055-2.93z"></path>
</symbol>
<symbol id="icon-chevron-thin-right" viewBox="0 0 20 20">
<path d="M13.25 10l-7.141-7.42c-0.268-0.27-0.268-0.707 0-0.979 0.268-0.27 0.701-0.27 0.969 0l7.83 7.908c0.268 0.271 0.268 0.709 0 0.979l-7.83 7.908c-0.268 0.271-0.701 0.27-0.969 0s-0.268-0.707 0-0.979l7.141-7.417z"></path>
</symbol>
<symbol id="icon-briefcase" viewBox="0 0 20 20">
<path d="M9 10h2v2h9c0 0-0.149-4.459-0.2-5.854-0.050-1.326-0.525-2.146-2-2.146h-3.208c-0.497-0.938-1.032-1.945-1.197-2.256-0.331-0.623-0.444-0.744-1.179-0.744h-4.433c-0.735 0-0.847 0.121-1.179 0.744-0.165 0.311-0.7 1.318-1.196 2.256h-3.209c-1.476 0-1.945 0.82-2 2.146s-0.199 5.854-0.199 5.854h9v-2zM7.649 2.916c0.23-0.432 0.308-0.516 0.817-0.516h3.067c0.509 0 0.588 0.084 0.816 0.516 0.086 0.16 0.318 0.6 0.575 1.084h-5.85c0.257-0.484 0.489-0.924 0.575-1.084zM11 15h-2v-2h-8.5c0 0 0.124 1.797 0.199 3.322 0.031 0.633 0.218 1.678 1.8 1.678h15.001c1.582 0 1.765-1.047 1.8-1.678 0.087-1.568 0.2-3.322 0.2-3.322h-8.5v2z"></path>
</symbol>
<symbol id="icon-chat" viewBox="0 0 20 20">
<path d="M5.8 12.2v-6.2h-3.8c-1.1 0-2 0.9-2 2v6c0 1.1 0.9 2 2 2h1v3l3-3h5c1.1 0 2-0.9 2-2v-1.82c-0.064 0.014-0.132 0.021-0.2 0.021l-7-0.001zM18 1h-9c-1.1 0-2 0.9-2 2v8h7l3 3v-3h1c1.1 0 2-0.899 2-2v-6c0-1.1-0.9-2-2-2z"></path>
</symbol>
<symbol id="icon-cog" viewBox="0 0 20 20">
<path d="M16.783 10c0-1.049 0.646-1.875 1.617-2.443-0.176-0.584-0.407-1.145-0.692-1.672-1.089 0.285-1.97-0.141-2.711-0.883-0.741-0.74-0.968-1.621-0.683-2.711-0.527-0.285-1.088-0.518-1.672-0.691-0.568 0.97-1.595 1.615-2.642 1.615-1.048 0-2.074-0.645-2.643-1.615-0.585 0.173-1.144 0.406-1.671 0.691 0.285 1.090 0.059 1.971-0.684 2.711-0.74 0.742-1.621 1.168-2.711 0.883-0.285 0.527-0.517 1.088-0.691 1.672 0.97 0.568 1.615 1.394 1.615 2.443 0 1.047-0.645 2.074-1.615 2.643 0.175 0.584 0.406 1.144 0.691 1.672 1.090-0.285 1.971-0.059 2.711 0.682s0.969 1.623 0.684 2.711c0.527 0.285 1.087 0.518 1.672 0.693 0.568-0.973 1.595-1.617 2.643-1.617 1.047 0 2.074 0.645 2.643 1.617 0.584-0.176 1.144-0.408 1.672-0.693-0.285-1.088-0.059-1.969 0.683-2.711 0.741-0.74 1.622-1.166 2.711-0.883 0.285-0.527 0.517-1.086 0.692-1.672-0.973-0.569-1.619-1.395-1.619-2.442zM10 13.652c-2.018 0-3.653-1.635-3.653-3.652 0-2.018 1.636-3.654 3.653-3.654s3.652 1.637 3.652 3.654c0 2.018-1.634 3.652-3.652 3.652z"></path>
</symbol>
<symbol id="icon-water" viewBox="0 0 20 20">
<path d="M9.882 9.093c-0.511 4.115-3.121 4.847-3.121 7.708 0 1.766 1.483 3.199 3.239 3.199s3.238-1.434 3.238-3.199c0-2.861-2.61-3.593-3.121-7.708-0.016-0.123-0.219-0.123-0.235 0zM3.883 0.093c-0.511 4.115-3.121 4.846-3.121 7.708 0 1.765 1.482 3.199 3.238 3.199s3.238-1.434 3.238-3.199c0-2.861-2.61-3.593-3.121-7.708-0.015-0.123-0.219-0.123-0.234 0zM15.883 0.093c-0.511 4.115-3.121 4.847-3.121 7.708 0 1.765 1.482 3.199 3.238 3.199s3.238-1.434 3.238-3.199c0-2.861-2.61-3.593-3.121-7.708-0.016-0.123-0.219-0.123-0.234 0z"></path>
</symbol>
<symbol id="icon-stats-dots" viewBox="0 0 32 32">
<path d="M4 28h28v4h-32v-32h4zM9 26c-1.657 0-3-1.343-3-3s1.343-3 3-3c0.088 0 0.176 0.005 0.262 0.012l3.225-5.375c-0.307-0.471-0.487-1.033-0.487-1.638 0-1.657 1.343-3 3-3s3 1.343 3 3c0 0.604-0.179 1.167-0.487 1.638l3.225 5.375c0.086-0.007 0.174-0.012 0.262-0.012 0.067 0 0.133 0.003 0.198 0.007l5.324-9.316c-0.329-0.482-0.522-1.064-0.522-1.691 0-1.657 1.343-3 3-3s3 1.343 3 3c0 1.657-1.343 3-3 3-0.067 0-0.133-0.003-0.198-0.007l-5.324 9.316c0.329 0.481 0.522 1.064 0.522 1.691 0 1.657-1.343 3-3 3s-3-1.343-3-3c0-0.604 0.179-1.167 0.487-1.638l-3.225-5.375c-0.086 0.007-0.174 0.012-0.262 0.012s-0.176-0.005-0.262-0.012l-3.225 5.375c0.307 0.471 0.487 1.033 0.487 1.637 0 1.657-1.343 3-3 3z"></path>
</symbol>
</defs>
</svg>
